<?xml version="1.0" encoding="UTF-8" standalone="no"?>
<!DOCTYPE svg PUBLIC "-//W3C//DTD SVG 1.1//EN" "http://www.w3.org/Graphics/SVG/1.1/DTD/svg11.dtd">
<svg width="100%" height="100%" viewBox="0 0 452 377" version="1.1" xmlns="http://www.w3.org/2000/svg" xmlns:xlink="http://www.w3.org/1999/xlink" xml:space="preserve" xmlns:serif="http://www.serif.com/" style="fill-rule:evenodd;clip-rule:evenodd;stroke-linejoin:round;stroke-miterlimit:2;">
    <g transform="matrix(1,0,0,1,-7583,-9442)">
        <g id="Artboard8" transform="matrix(1,0,0,1,-0.707876,0)">
            <rect x="7583.708" y="9442" width="451.292" height="377" style="fill:none;"/>
            <g transform="matrix(4.338762,0,0,2.75081,-6397.744808,3451.785983)">
                <g>
                    <g transform="matrix(0.210085,0,0,0.355481,1759.860074,160.025134)">
                        <path d="M7253,5794.989L7253,5984.011C7253,5997.251 7241.468,6008 7227.264,6008L7030.736,6008C7016.532,6008 7005,5997.251 7005,5984.011L7005,5794.989C7005,5781.749 7016.532,5771 7030.736,5771L7227.264,5771C7241.468,5771 7253,5781.749 7253,5794.989Z" style="fill:url(#_Linear1);"/>
                    </g>
                    <g transform="matrix(0.125273,0,0,0.211972,2408.812048,988.202993)">
                        <path d="M7253,5794.989L7253,5984.011C7253,5997.251 7241.468,6008 7227.264,6008L7030.736,6008C7016.532,6008 7005,5997.251 7005,5984.011L7005,5794.989C7005,5781.749 7016.532,5771 7030.736,5771L7227.264,5771C7241.468,5771 7253,5781.749 7253,5794.989Z" style="fill:url(#_Linear2);"/>
                    </g>
                    <g transform="matrix(0.080922,0,0,0.136926,2730.491404,1473.090288)">
                        <path d="M7253,5794.989L7253,5984.011C7253,5997.251 7241.468,6008 7227.264,6008L7030.736,6008C7016.532,6008 7005,5997.251 7005,5984.011L7005,5794.989C7005,5781.749 7016.532,5771 7030.736,5771L7227.264,5771C7241.468,5771 7253,5781.749 7253,5794.989Z" style="fill:url(#_Linear3);"/>
                    </g>
                    <g transform="matrix(0.037348,0,0,0.063197,3024.652752,1915.753948)">
                        <path d="M7253,5794.989L7253,5984.011C7253,5997.251 7241.468,6008 7227.264,6008L7030.736,6008C7016.532,6008 7005,5997.251 7005,5984.011L7005,5794.989C7005,5781.749 7016.532,5771 7030.736,5771L7227.264,5771C7241.468,5771 7253,5781.749 7253,5794.989Z" style="fill:url(#_Linear4);"/>
                    </g>
                </g>
                <g transform="matrix(0.037348,0,0,0.063197,3015.595675,1831.827439)">
                    <path d="M7067.438,5771C7169.921,5771 7253,5848.442 7253,5943.971C7253,5980.366 7253,6008 7253,6008L7187.217,6008C7138.89,6008 7092.543,5990.105 7058.37,5958.251C7024.198,5926.398 7005,5883.195 7005,5838.147C7005,5800.223 7005,5771 7005,5771C7005,5771 7031.631,5771 7067.438,5771Z" style="fill:url(#_Linear5);"/>
                </g>
            </g>
        </g>
    </g>
    <defs>
        <linearGradient id="_Linear1" x1="0" y1="0" x2="1" y2="0" gradientUnits="userSpaceOnUse" gradientTransform="matrix(-457.467313,174.293242,-186.980688,-426.426184,7378.961375,5804.939912)"><stop offset="0" style="stop-color:rgb(36,140,83);stop-opacity:1"/><stop offset="1" style="stop-color:rgb(6,54,143);stop-opacity:1"/></linearGradient>
        <linearGradient id="_Linear2" x1="0" y1="0" x2="1" y2="0" gradientUnits="userSpaceOnUse" gradientTransform="matrix(-767.181209,292.293015,-313.570097,-715.124657,7198.13513,5827.971972)"><stop offset="0" style="stop-color:rgb(36,140,83);stop-opacity:1"/><stop offset="1" style="stop-color:rgb(6,54,143);stop-opacity:1"/></linearGradient>
        <linearGradient id="_Linear3" x1="0" y1="0" x2="1" y2="0" gradientUnits="userSpaceOnUse" gradientTransform="matrix(-1187.655525,452.492071,-485.430631,-1107.067979,7162.193597,5480.908533)"><stop offset="0" style="stop-color:rgb(36,140,83);stop-opacity:1"/><stop offset="1" style="stop-color:rgb(6,54,143);stop-opacity:1"/></linearGradient>
        <linearGradient id="_Linear4" x1="0" y1="0" x2="1" y2="0" gradientUnits="userSpaceOnUse" gradientTransform="matrix(-2573.253638,980.399487,-1051.766368,-2398.647288,7641.940974,4870.746386)"><stop offset="0" style="stop-color:rgb(36,140,83);stop-opacity:1"/><stop offset="1" style="stop-color:rgb(6,54,143);stop-opacity:1"/></linearGradient>
        <linearGradient id="_Linear5" x1="0" y1="0" x2="1" y2="0" gradientUnits="userSpaceOnUse" gradientTransform="matrix(-2573.253638,980.399487,-1051.766368,-2398.647288,7884.443448,6198.770215)"><stop offset="0" style="stop-color:rgb(36,140,83);stop-opacity:1"/><stop offset="1" style="stop-color:rgb(6,54,143);stop-opacity:1"/></linearGradient>
    </defs>
</svg>
