<?xml version="1.0" encoding="UTF-8" standalone="no"?>
<!DOCTYPE svg PUBLIC "-//W3C//DTD SVG 1.1//EN" "http://www.w3.org/Graphics/SVG/1.1/DTD/svg11.dtd">
<svg width="100%" height="100%" viewBox="0 0 1970 942" version="1.1" xmlns="http://www.w3.org/2000/svg" xmlns:xlink="http://www.w3.org/1999/xlink" xml:space="preserve" xmlns:serif="http://www.serif.com/" style="fill-rule:evenodd;clip-rule:evenodd;stroke-linejoin:round;stroke-miterlimit:2;">
    <g transform="matrix(1,0,0,1,-4645.381235,-6838.612265)">
        <g id="Artboard2" transform="matrix(2.091295,0,0,1,-794.077364,5175.612265)">
            <rect x="2601" y="1663" width="942" height="942" style="fill:none;"/>
            <g transform="matrix(3.054268,0,0,4.049648,-7182.98827,-6917.359431)">
                <g>
                    <g transform="matrix(0.210085,0,0,0.355481,1759.860074,160.025134)">
                        <path d="M7253,5794.989L7253,5984.011C7253,5997.251 7241.468,6008 7227.264,6008L7030.736,6008C7016.532,6008 7005,5997.251 7005,5984.011L7005,5794.989C7005,5781.749 7016.532,5771 7030.736,5771L7227.264,5771C7241.468,5771 7253,5781.749 7253,5794.989Z" style="fill:url(#_Linear1);"/>
                    </g>
                    <g transform="matrix(0.125273,0,0,0.211972,2408.812048,988.202993)">
                        <path d="M7253,5794.989L7253,5984.011C7253,5997.251 7241.468,6008 7227.264,6008L7030.736,6008C7016.532,6008 7005,5997.251 7005,5984.011L7005,5794.989C7005,5781.749 7016.532,5771 7030.736,5771L7227.264,5771C7241.468,5771 7253,5781.749 7253,5794.989Z" style="fill:url(#_Linear2);"/>
                    </g>
                    <g transform="matrix(0.080922,0,0,0.136926,2730.491404,1473.090288)">
                        <path d="M7253,5794.989L7253,5984.011C7253,5997.251 7241.468,6008 7227.264,6008L7030.736,6008C7016.532,6008 7005,5997.251 7005,5984.011L7005,5794.989C7005,5781.749 7016.532,5771 7030.736,5771L7227.264,5771C7241.468,5771 7253,5781.749 7253,5794.989Z" style="fill:url(#_Linear3);"/>
                    </g>
                    <g transform="matrix(0.037348,0,0,0.063197,3024.652752,1915.753948)">
                        <path d="M7253,5794.989L7253,5984.011C7253,5997.251 7241.468,6008 7227.264,6008L7030.736,6008C7016.532,6008 7005,5997.251 7005,5984.011L7005,5794.989C7005,5781.749 7016.532,5771 7030.736,5771L7227.264,5771C7241.468,5771 7253,5781.749 7253,5794.989Z" style="fill:url(#_Linear4);"/>
                    </g>
                </g>
                <g transform="matrix(0.037348,0,0,0.063197,3015.595675,1831.827439)">
                    <path d="M7126.953,5771C7196.567,5771 7253,5823.604 7253,5888.494C7253,5948.077 7253,6008 7253,6008C7253,6008 7190.85,6008 7128.775,6008C7095.948,6008 7064.465,5995.844 7041.253,5974.207C7018.041,5952.57 7005,5923.223 7005,5892.624C7005,5832.351 7005,5771 7005,5771C7005,5771 7065.643,5771 7126.953,5771Z" style="fill:url(#_Linear5);"/>
                </g>
            </g>
            <g transform="matrix(0.897653,0,0,2.334429,-3481.689439,-11070.864533)">
                <path d="M7309.604,5719.283L7309.604,5624.197L7323.131,5624.197L7323.131,5639.763C7324.686,5637.638 7326.707,5635.575 7329.195,5633.574C7331.682,5631.574 7334.364,5629.792 7337.241,5628.229C7340.117,5626.666 7343.071,5625.353 7346.103,5624.29C7349.135,5623.228 7351.973,5622.571 7354.616,5622.321L7354.616,5633.011C7350.884,5633.512 7347.153,5634.731 7343.421,5636.669C7339.69,5638.607 7336.308,5641.076 7333.276,5644.077C7330.244,5647.078 7327.795,5650.516 7325.93,5654.392C7324.064,5658.268 7323.131,5662.456 7323.131,5666.958L7323.131,5719.283L7309.604,5719.283Z" style="fill-rule:nonzero;"/>
                <path d="M7409.656,5632.636C7404.37,5632.511 7399.394,5633.074 7394.73,5634.324C7390.065,5635.575 7385.867,5637.325 7382.136,5639.576C7377.005,5642.701 7372.963,5646.577 7370.008,5651.204L7357.881,5645.765C7363.167,5637.888 7370.242,5632.011 7379.104,5628.135C7387.966,5624.259 7397.917,5622.321 7408.956,5622.321C7415.02,5622.321 7421.162,5623.134 7427.381,5624.759C7433.6,5626.385 7439.236,5628.885 7444.289,5632.261C7449.343,5635.637 7453.463,5639.857 7456.65,5644.921C7459.838,5649.985 7461.431,5655.892 7461.431,5662.644L7461.431,5719.283L7447.904,5719.283L7447.904,5700.529C7446.039,5703.029 7443.279,5705.499 7439.625,5707.937C7435.971,5710.375 7431.851,5712.563 7427.264,5714.501C7422.678,5716.439 7417.858,5718.033 7412.805,5719.283C7407.751,5720.534 7402.893,5721.159 7398.228,5721.159C7392.942,5721.159 7387.811,5720.659 7382.836,5719.659C7377.86,5718.658 7373.468,5717.064 7369.659,5714.876C7365.849,5712.688 7362.895,5709.875 7360.796,5706.436C7358.697,5702.998 7357.725,5698.841 7357.881,5693.964C7358.192,5688.963 7359.747,5684.9 7362.545,5681.774C7365.344,5678.648 7368.959,5676.116 7373.39,5674.178C7377.821,5672.24 7382.836,5670.771 7388.433,5669.771C7394.03,5668.771 7399.705,5667.958 7405.458,5667.333C7409.967,5666.833 7414.359,5666.364 7418.635,5665.926C7422.911,5665.488 7426.876,5664.988 7430.529,5664.426C7434.183,5663.863 7437.409,5663.207 7440.208,5662.456C7443.007,5661.706 7445.106,5660.706 7446.505,5659.456L7446.505,5659.081C7446.505,5655.455 7445.456,5652.079 7443.357,5648.953C7441.258,5645.827 7438.498,5643.045 7435.077,5640.607C7431.657,5638.169 7427.731,5636.231 7423.299,5634.793C7418.868,5633.355 7414.32,5632.636 7409.656,5632.636ZM7398.695,5711.219C7402.582,5711.219 7407.052,5710.656 7412.105,5709.531C7417.158,5708.406 7422.056,5706.874 7426.798,5704.936C7431.54,5702.998 7435.816,5700.622 7439.625,5697.809C7443.434,5694.996 7446.039,5691.901 7447.438,5688.526L7447.438,5669.396C7445.728,5670.646 7443.434,5671.709 7440.558,5672.584C7437.681,5673.459 7434.455,5674.178 7430.879,5674.741C7427.303,5675.303 7423.455,5675.804 7419.335,5676.241C7415.214,5676.679 7411.133,5677.085 7407.091,5677.46C7402.582,5677.96 7398.189,5678.554 7393.914,5679.242C7389.638,5679.93 7385.867,5680.867 7382.602,5682.055C7379.337,5683.243 7376.694,5684.775 7374.673,5686.65C7372.652,5688.526 7371.563,5690.964 7371.408,5693.964C7371.252,5697.215 7371.913,5699.935 7373.39,5702.123C7374.867,5704.311 7376.888,5706.093 7379.454,5707.468C7382.019,5708.843 7384.973,5709.812 7388.316,5710.375C7391.659,5710.938 7395.119,5711.219 7398.695,5711.219Z" style="fill-rule:nonzero;"/>
                <path d="M7482.188,5719.283L7482.188,5634.699L7470.76,5634.699L7470.76,5624.197L7482.188,5624.197L7482.188,5613.506C7482.188,5605.379 7485.025,5599.034 7490.701,5594.47C7496.376,5589.907 7503.411,5587.625 7511.807,5587.625C7518.337,5587.625 7524.945,5589 7531.631,5591.751L7526.733,5600.753C7522.069,5599.253 7517.715,5598.503 7513.673,5598.503C7508.386,5598.503 7504.072,5599.816 7500.729,5602.441C7497.386,5605.067 7495.715,5608.88 7495.715,5613.882L7495.715,5624.197L7517.404,5624.197L7517.404,5634.699L7495.715,5634.699L7495.715,5719.283L7482.188,5719.283Z" style="fill-rule:nonzero;"/>
                <path d="M7561.95,5624.197L7583.639,5624.197L7583.639,5634.699L7561.95,5634.699L7561.95,5693.402C7561.95,5698.403 7563.621,5702.217 7566.964,5704.842C7570.307,5707.468 7574.621,5708.781 7579.908,5708.781C7583.95,5708.781 7588.304,5708.031 7592.968,5706.53L7597.866,5715.532C7591.18,5718.283 7584.572,5719.659 7578.042,5719.659C7569.646,5719.659 7562.649,5717.377 7557.052,5712.813C7551.455,5708.249 7548.656,5701.904 7548.656,5693.777L7548.423,5634.699L7536.995,5634.699L7536.995,5624.197L7548.423,5624.197L7548.423,5588L7561.95,5588L7561.95,5624.197Z" style="fill-rule:nonzero;"/>
                <path d="M7643.344,5721.159C7636.347,5721.159 7630.011,5720.19 7624.336,5718.252C7618.661,5716.314 7613.803,5713.563 7609.76,5710C7605.718,5706.436 7602.608,5702.185 7600.431,5697.247C7598.254,5692.308 7597.166,5686.775 7597.166,5680.649L7597.166,5624.197L7610.693,5624.197L7610.693,5680.274C7610.693,5689.151 7613.53,5696.403 7619.206,5702.029C7624.881,5707.655 7633.16,5710.531 7644.044,5710.656C7649.485,5710.656 7654.383,5709.875 7658.737,5708.312C7663.09,5706.749 7666.822,5704.623 7669.931,5701.935C7673.041,5699.247 7675.451,5696.153 7677.161,5692.652C7678.871,5689.151 7679.727,5685.525 7679.727,5681.774L7679.727,5624.197L7693.253,5624.197L7693.487,5719.283C7693.487,5725.41 7692.32,5730.943 7689.988,5735.881C7687.656,5740.82 7684.391,5745.071 7680.193,5748.635C7675.995,5752.198 7670.981,5754.949 7665.15,5756.887C7659.32,5758.825 7652.906,5759.794 7645.909,5759.794C7633.937,5759.794 7624.064,5757.324 7616.29,5752.386C7608.516,5747.447 7602.452,5740.601 7598.099,5731.849L7611.159,5728.661C7614.735,5735.288 7619.322,5740.383 7624.919,5743.946C7630.517,5747.509 7637.747,5749.291 7646.609,5749.291C7652.051,5749.291 7656.832,5748.541 7660.952,5747.041C7665.072,5745.54 7668.532,5743.446 7671.331,5740.758C7674.129,5738.069 7676.267,5734.85 7677.744,5731.099C7679.221,5727.348 7679.96,5723.284 7679.96,5718.908L7679.96,5704.655C7679.027,5705.905 7677.628,5707.499 7675.762,5709.437C7673.896,5711.375 7671.486,5713.188 7668.532,5714.876C7665.578,5716.564 7662.041,5718.033 7657.92,5719.283C7653.8,5720.534 7648.941,5721.159 7643.344,5721.159Z" style="fill-rule:nonzero;"/>
            </g>
            <g transform="matrix(0.753832,0,0,1.576484,-1109.40721,-9382.518448)">
                <path d="M5416.838,7339.987L5416.838,7256.394L5531.257,7256.394L5531.535,7397.197C5531.535,7406.269 5530.146,7414.461 5527.369,7421.775C5524.592,7429.088 5520.704,7435.383 5515.705,7440.659C5510.706,7445.936 5504.735,7450.009 5497.792,7452.879C5490.849,7455.749 5483.212,7457.184 5474.881,7457.184C5460.624,7457.184 5448.868,7453.527 5439.61,7446.214C5430.353,7438.901 5423.133,7428.764 5417.949,7415.804L5433.501,7411.083C5437.759,7420.895 5443.221,7428.44 5449.886,7433.717C5456.551,7438.993 5465.16,7441.631 5475.714,7441.631C5482.194,7441.631 5487.887,7440.521 5492.793,7438.299C5497.7,7436.077 5501.819,7432.976 5505.152,7428.995C5508.484,7425.015 5511.03,7420.247 5512.789,7414.693C5514.548,7409.139 5515.427,7403.121 5515.427,7396.641L5515.427,7375.535C5514.316,7377.386 5512.65,7379.747 5510.428,7382.617C5508.207,7385.486 5505.337,7388.171 5501.819,7390.67C5498.301,7393.17 5494.089,7395.345 5489.183,7397.197C5484.277,7399.048 5478.491,7399.974 5471.826,7399.974C5463.494,7399.974 5455.949,7398.539 5449.192,7395.669C5442.434,7392.799 5436.648,7388.726 5431.834,7383.45C5427.021,7378.173 5423.318,7371.878 5420.726,7364.565C5418.134,7357.252 5416.838,7349.059 5416.838,7339.987ZM5515.15,7272L5432.945,7272L5432.945,7339.431C5432.945,7352.577 5436.324,7363.315 5443.082,7371.647C5449.84,7379.978 5459.699,7384.237 5472.659,7384.422C5479.139,7384.422 5484.971,7383.265 5490.155,7380.95C5495.339,7378.636 5499.783,7375.488 5503.485,7371.508C5507.188,7367.527 5510.058,7362.945 5512.095,7357.761C5514.131,7352.577 5515.15,7347.208 5515.15,7341.653L5515.15,7272Z"/>
            </g>
        </g>
    </g>
    <defs>
        <linearGradient id="_Linear1" x1="0" y1="0" x2="1" y2="0" gradientUnits="userSpaceOnUse" gradientTransform="matrix(-457.467313,174.293242,-186.980688,-426.426184,7378.961375,5804.939912)"><stop offset="0" style="stop-color:rgb(36,140,83);stop-opacity:1"/><stop offset="1" style="stop-color:rgb(6,54,143);stop-opacity:1"/></linearGradient>
        <linearGradient id="_Linear2" x1="0" y1="0" x2="1" y2="0" gradientUnits="userSpaceOnUse" gradientTransform="matrix(-767.181209,292.293015,-313.570097,-715.124657,7198.13513,5827.971972)"><stop offset="0" style="stop-color:rgb(36,140,83);stop-opacity:1"/><stop offset="1" style="stop-color:rgb(6,54,143);stop-opacity:1"/></linearGradient>
        <linearGradient id="_Linear3" x1="0" y1="0" x2="1" y2="0" gradientUnits="userSpaceOnUse" gradientTransform="matrix(-1187.655525,452.492071,-485.430631,-1107.067979,7162.193597,5480.908533)"><stop offset="0" style="stop-color:rgb(36,140,83);stop-opacity:1"/><stop offset="1" style="stop-color:rgb(6,54,143);stop-opacity:1"/></linearGradient>
        <linearGradient id="_Linear4" x1="0" y1="0" x2="1" y2="0" gradientUnits="userSpaceOnUse" gradientTransform="matrix(-2573.253638,980.399487,-1051.766368,-2398.647288,7641.940974,4870.746386)"><stop offset="0" style="stop-color:rgb(36,140,83);stop-opacity:1"/><stop offset="1" style="stop-color:rgb(6,54,143);stop-opacity:1"/></linearGradient>
        <linearGradient id="_Linear5" x1="0" y1="0" x2="1" y2="0" gradientUnits="userSpaceOnUse" gradientTransform="matrix(-2573.253638,980.399487,-1051.766368,-2398.647288,7884.443448,6198.770215)"><stop offset="0" style="stop-color:rgb(36,140,83);stop-opacity:1"/><stop offset="1" style="stop-color:rgb(6,54,143);stop-opacity:1"/></linearGradient>
    </defs>
</svg>
