<?xml version="1.0" encoding="UTF-8" standalone="no"?>
<!DOCTYPE svg PUBLIC "-//W3C//DTD SVG 1.1//EN" "http://www.w3.org/Graphics/SVG/1.1/DTD/svg11.dtd">
<svg width="100%" height="100%" viewBox="0 0 942 942" version="1.1" xmlns="http://www.w3.org/2000/svg" xmlns:xlink="http://www.w3.org/1999/xlink" xml:space="preserve" xmlns:serif="http://www.serif.com/" style="fill-rule:evenodd;clip-rule:evenodd;stroke-linejoin:round;stroke-miterlimit:2;">
    <g transform="matrix(1,0,0,1,-5858.288175,-1633.23385)">
        <g id="Artboard2" transform="matrix(1,0,0,1,3257.288175,-29.76615)">
            <rect x="2601" y="1663" width="942" height="942" style="fill:none;"/>
            <clipPath id="_clip1">
                <rect x="2601" y="1663" width="942" height="942"/>
            </clipPath>
            <g clip-path="url(#_clip1)">
                <g transform="matrix(1,0,0,1,1844.074517,-537.319598)">
                    <g transform="matrix(1.5088,0,0,1.5088,-491.704192,-1368.073072)">
                        <g transform="matrix(0.60895,0.054382,-0.054382,0.60895,32.315515,1686.304669)">
                            <path d="M1440.437,1519.148C1670.459,1452.076 1756.447,1523.979 1792.06,1587.63C1822.354,1641.766 1713.514,1887.583 1479.977,1961.904L1440.437,1519.148ZM1609.106,1569.004C1583.03,1571.332 1563.751,1594.393 1566.079,1620.469C1568.408,1646.545 1591.469,1665.825 1617.545,1663.496C1643.621,1661.167 1662.9,1638.106 1660.572,1612.03C1658.243,1585.955 1635.182,1566.675 1609.106,1569.004Z" style="fill:url(#_Linear2);fill-rule:nonzero;"/>
                        </g>
                        <g transform="matrix(0.866248,0,0,0.842059,433.612002,770.605888)">
                            <path d="M1175.464,2604.736C1136.194,2606.728 1093.654,2601.885 1048.149,2587.852C1002.631,2573.817 967.522,2556.708 940.319,2537.442L939.969,2537.556C877.849,2557.725 846.614,2591.961 831.176,2618.026C825.663,2627.336 811.47,2623.967 810.918,2613.161C808.846,2572.545 816.995,2512.297 876.917,2485.973C879.733,2484.736 882.52,2483.533 885.28,2482.363C820.782,2387.897 858.257,2269.215 808.587,2195.399C805.653,2191.036 799.543,2190.184 795.652,2193.72C784.404,2203.935 753.952,2220.142 676.497,2213.225C592.267,2205.703 576.419,2240.797 576.419,2240.797C576.419,2240.797 539.114,2062.941 749.993,2105.201C749.993,2105.201 723.623,2063.371 776.819,2015.783C830.013,1968.202 785.29,1920.922 785.29,1920.922C785.29,1920.922 858.26,1911.202 868.102,2008.687C877.945,2106.172 809.781,2122.793 851.852,2190.653C893.922,2258.521 948.928,2352.019 1167.805,2290.411C1170.379,2289.687 1172.932,2288.98 1175.464,2288.29L1175.464,2604.736Z" style="fill:url(#_Linear3);"/>
                        </g>
                    </g>
                </g>
            </g>
        </g>
    </g>
    <defs>
        <linearGradient id="_Linear2" x1="0" y1="0" x2="1" y2="0" gradientUnits="userSpaceOnUse" gradientTransform="matrix(1125.748011,745.18367,-745.18367,1125.748011,1527.286865,1275.373016)"><stop offset="0" style="stop-color:rgb(212,4,150);stop-opacity:1"/><stop offset="1" style="stop-color:rgb(0,34,157);stop-opacity:1"/></linearGradient>
        <linearGradient id="_Linear3" x1="0" y1="0" x2="1" y2="0" gradientUnits="userSpaceOnUse" gradientTransform="matrix(744.590349,611.596124,-594.517876,765.979612,530.319178,2108.396423)"><stop offset="0" style="stop-color:rgb(212,4,150);stop-opacity:1"/><stop offset="1" style="stop-color:rgb(0,34,157);stop-opacity:1"/></linearGradient>
    </defs>
</svg>
