<?xml version="1.0" encoding="UTF-8" standalone="no"?><!DOCTYPE svg PUBLIC "-//W3C//DTD SVG 1.1//EN" "http://www.w3.org/Graphics/SVG/1.1/DTD/svg11.dtd"><svg width="100%" height="100%" viewBox="0 0 1970 942" version="1.1" xmlns="http://www.w3.org/2000/svg" xmlns:xlink="http://www.w3.org/1999/xlink" xml:space="preserve" xmlns:serif="http://www.serif.com/" style="fill-rule:evenodd;clip-rule:evenodd;stroke-linejoin:round;stroke-miterlimit:2;"><rect id="Artboard2" x="0" y="0" width="1970" height="942" style="fill:none;"/><g><g><path d="M50.421,469.909c146.047,-34.353 195.285,24.402 213.805,73.743c15.754,41.965 -65.182,216.273 -213.805,255.745l-0,-329.488Zm101.62,47.928c-16.265,0 -29.47,15.754 -29.47,35.159c0,19.405 13.205,35.159 29.47,35.159c16.265,-0 29.47,-15.754 29.47,-35.159c-0,-19.405 -13.205,-35.159 -29.47,-35.159Z" style="fill:#fff;fill-rule:nonzero;"/><path d="M685.545,802.375c-34.568,2.034 -72.016,-2.911 -112.073,-17.237c-40.068,-14.329 -70.974,-31.794 -94.92,-51.464l-0.308,0.116c-54.683,20.591 -82.179,55.543 -95.768,82.153c-4.853,9.504 -17.347,6.065 -17.833,-4.967c-1.824,-41.465 5.349,-102.972 58.098,-129.847c2.478,-1.263 4.932,-2.491 7.361,-3.685c-56.776,-96.44 -23.787,-217.604 -67.511,-292.964c-2.583,-4.454 -7.962,-5.323 -11.387,-1.714c-9.901,10.429 -36.708,26.975 -104.889,19.913c-74.146,-7.679 -88.097,28.148 -88.097,28.148c0,0 -32.838,-181.574 152.794,-138.431c0,0 -23.213,-42.705 23.614,-91.288c46.826,-48.575 7.457,-96.844 7.457,-96.844c0,0 64.234,-9.923 72.898,89.6c8.665,99.523 -51.339,116.491 -14.305,185.77c37.033,69.287 85.455,164.739 278.127,101.843c2.266,-0.74 4.513,-1.461 6.742,-2.165l-0,323.062Z" style="fill:#fff;"/></g><g><path d="M735.197,794.604l67.778,0l52.89,-149.107l53.282,149.107l67.778,0l30.559,-310.366l-69.345,0l-13.712,153.313l-36.827,-95.821l-63.076,0l-34.868,95.821l-16.063,-153.313l-69.345,0l30.951,310.366Z" style="fill:#fff;fill-rule:nonzero;"/><path d="M1109.738,794.604l23.899,-73.385l97.945,0l24.29,73.385l75.222,0l-104.213,-310.366l-86.975,0l-104.605,310.366l74.438,0Zm72.479,-220.154l25.466,71.982l-49.756,0l24.29,-71.982Z" style="fill:#fff;fill-rule:nonzero;"/><path d="M1387.901,484.238l-74.83,0l104.605,310.366l86.975,0l104.213,-310.366l-74.438,0l-1.175,3.739l-51.323,154.716c-2.089,6.855 -3.787,11.841 -5.093,14.957l-12.145,38.796l-2.351,8.414l-74.438,-220.622Z" style="fill:#fff;fill-rule:nonzero;"/><path d="M1765.575,478.629c-28.73,0 -53.151,7.946 -73.263,23.838c-20.111,15.892 -35.195,36.225 -45.25,60.998c-10.056,24.773 -15.083,50.092 -15.083,75.956c0,26.175 5.028,51.572 15.083,76.189c10.056,24.617 25.139,44.872 45.25,60.764c20.111,15.892 44.532,23.838 73.263,23.838c28.992,0 53.543,-7.946 73.654,-23.838c20.111,-15.892 35.195,-36.147 45.25,-60.764c10.056,-24.617 15.083,-50.014 15.083,-76.189c0,-25.864 -5.028,-51.182 -15.083,-75.956c-10.056,-24.773 -25.139,-45.106 -45.25,-60.998c-20.111,-15.892 -44.663,-23.838 -73.654,-23.838Zm-61.117,160.792c0,-13.399 2.285,-26.487 6.856,-39.263c4.571,-12.776 11.427,-23.293 20.568,-31.551c9.142,-8.258 20.372,-12.387 33.693,-12.387c13.32,0 24.682,4.129 34.085,12.387c9.403,8.258 16.389,18.775 20.96,31.551c4.571,12.776 6.856,25.864 6.856,39.263c0,13.399 -2.285,26.487 -6.856,39.263c-4.571,12.776 -11.557,23.215 -20.96,31.317c-9.403,8.102 -20.764,12.153 -34.085,12.153c-13.32,0 -24.551,-4.051 -33.693,-12.153c-9.142,-8.102 -15.998,-18.541 -20.568,-31.317c-4.571,-12.776 -6.856,-25.864 -6.856,-39.263Z" style="fill:#fff;fill-rule:nonzero;"/></g></g></svg>